<svg xmlns="http://www.w3.org/2000/svg" xml:space="preserve" width="2048px" height="2048px" style="shape-rendering:geometricPrecision; text-rendering:geometricPrecision; image-rendering:optimizeQuality; fill-rule:evenodd; clip-rule:evenodd"
viewBox="0 0 2048 2048"
 xmlns:xlink="http://www.w3.org/1999/xlink">
 <g id="Layer_x0020_1">
  <metadata id="CorelCorpID_0Corel-Layer"/>
  <path d="M1509.46 250.518c-6.62717,-16.3606 -25.265,-24.2528 -41.6256,-17.6256 -16.3606,6.62717 -24.2528,25.265 -17.6256,41.6256 13.2638,32.7036 23.3079,66.6532 30.0177,101.28 6.70867,34.6229 10.1185,70.1823 10.1185,106.11 0,141.671 -52.5319,269.733 -137.463,362.255 -84.2977,91.832 -200.588,148.632 -328.885,148.632 -128.297,0 -244.588,-56.8004 -328.885,-148.632 -115.779,-126.128 -159.982,-305.02 -126.658,-471.607 7.1563,-35.7674 17.8276,-70.7008 31.891,-104.18 6.83386,-16.2921 -0.832678,-35.0422 -17.1248,-41.876 -16.2921,-6.83386 -35.0422,0.832678 -41.876,17.1248 -15.7181,37.4197 -27.6461,76.4611 -35.6422,116.431 -37.3347,186.645 12.763,386.127 142.409,527.36 96.065,104.653 228.952,169.382 375.886,169.382 146.934,0 279.821,-64.7292 375.886,-169.382 95.4355,-103.964 154.464,-247.349 154.464,-405.507 0,-39.6284 -3.8315,-79.2107 -11.3681,-118.11 -7.5378,-38.9044 -18.7547,-76.8768 -33.5185,-113.28z"/>
  <path d="M1056 1033.95c0,-17.6728 -14.328,-32.0008 -32.0008,-32.0008 -17.6728,0 -32.0008,14.328 -32.0008,32.0008l0 750.278c0,17.6728 14.328,32.0008 32.0008,32.0008 17.6728,0 32.0008,-14.328 32.0008,-32.0008l0 -750.278z"/>
  <path d="M810.053 1760c-17.6728,0 -32.0008,14.328 -32.0008,32.0008 0,17.6728 14.328,32.0008 32.0008,32.0008l427.9 0c17.6728,0 32.0008,-14.328 32.0008,-32.0008 0,-17.6728 -14.328,-32.0008 -32.0008,-32.0008l-427.9 0z"/>
  <path d="M1458.33 485.236l-868.636 0c0.800788,123.266 44.6611,245.416 128.994,337.288 79.2036,86.2831 187.335,138.272 305.312,138.272 117.977,0 226.108,-51.9898 305.312,-138.272 84.2646,-91.7965 128.245,-213.28 129.019,-337.288z"/>
 </g>
</svg>